<?xml version="1.0" encoding="UTF-8"?>
<!DOCTYPE X3D PUBLIC "ISO//Web3D//DTD X3D 3.0//EN" "http://www.web3d.org/specifications/x3d-3.0.dtd">
<X3D version="3.0" profile="Immersive" xmlns:xsd="http://www.w3.org/2001/XMLSchema-instance" xsd:noNamespaceSchemaLocation="http://www.web3d.org/specifications/x3d-3.0.xsd">
	<head>
		<meta name="filename" content="temp.x3d" />
		<meta name="created" content="2026-05-13 18:44:32" />
		<meta name="generator" content="Blender 5.0.1" />
		<meta name="translator" content="Web3D X3D/VRML2 format v2.5.1" />
	</head>
	<Scene>
		<NavigationInfo headlight="true"
		                visibilityLimit="0.0"
		                type='"EXAMINE", "ANY"'
		                avatarSize="0.25, 1.75, 0.75"
		                />
		<Background DEF="WO_World"
		            groundColor="0.051 0.051 0.051"
		            skyColor="0.051 0.051 0.051"
		            />
		<Transform DEF="紺(サファイヤ)_TRANSFORM"
		           translation="0.000000 0.000000 0.000000"
		           scale="1.000000 1.000000 1.000000"
		           rotation="-1.000000 0.000000 0.000000 1.570796"
		           >
			<Transform DEF="紺(サファイヤ)_ifs_TRANSFORM"
			           translation="0.000000 0.000000 0.000000"
			           scale="1.000000 1.000000 1.000000"
			           rotation="0.000000 1.000000 0.000000 0.000000"
			           >
				<Group DEF="group_ME_円柱_005">
					<Shape>
						<Appearance>
						</Appearance>
						<IndexedFaceSet solid="false"
						                normalPerVertex="true"
						                texCoordIndex="0 1 2 3 4 5 6 -1 7 8 9 10 -1 11 12 13 14 -1 15 16 17 18 -1 19 20 21 22 23 24 -1 25 26 27 -1 28 29 30 31 -1 32 33 34 35 36 37 -1 38 39 40 -1 41 42 43 44 -1 45 46 47 48 -1 49 50 51 52 -1 53 54 55 56 -1 57 58 59 60 -1 61 62 63 64 -1 65 66 67 68 69 -1 70 71 72 73 74 75 76 -1 77 78 79 80 -1 81 82 83 84 85 86 -1 87 88 89 -1 "
						                coordIndex="15 7 2 19 16 17 18 -1 0 5 9 4 -1 1 6 5 0 -1 3 11 13 8 -1 2 3 22 21 20 19 -1 4 1 0 -1 11 10 1 4 -1 24 8 7 15 25 23 -1 9 5 6 -1 13 9 6 12 -1 8 13 12 7 -1 3 2 10 11 -1 7 12 10 2 -1 11 4 9 13 -1 10 12 6 1 -1 3 8 24 26 22 -1 26 24 23 25 14 21 22 -1 14 25 15 18 -1 21 14 17 16 19 20 -1 14 18 17 -1 "
						                >
							<Coordinate DEF="coords_ME_円柱_005"
							            point="0.053166 -0.165216 0.505122 0.049434 -0.130872 0.500107 0.034845 -0.080128 0.483055 0.018464 -0.106622 0.441233 0.039218 -0.144908 0.478567 0.042761 -0.165601 0.507866 0.038728 -0.131294 0.503861 0.024721 -0.079635 0.487842 0.008080 -0.106756 0.444974 0.028993 -0.145404 0.481693 0.043622 -0.106617 0.493992 0.028106 -0.126091 0.458680 0.033559 -0.106464 0.498203 0.017481 -0.126538 0.462201 0.018497 -0.044655 0.457210 0.010995 -0.045156 0.462192 0.020294 -0.043237 0.456284 0.019609 -0.043912 0.457210 0.018418 -0.044464 0.458249 0.020477 -0.043052 0.456017 0.017944 -0.043120 0.449092 0.017865 -0.043129 0.448906 0.017546 -0.043048 0.448178 0.009172 -0.046419 0.456751 0.007191 -0.045911 0.452217 0.009347 -0.046475 0.457210 0.007782 -0.045754 0.452021 "
							            />
							<Normal DEF="normals_ME_円柱_005"
							        vector="0.722659 -0.652005 0.229465 0.904929 0.213384 0.368199 0.853484 0.440987 0.277660 0.300473 -0.223607 -0.927209 0.496695 -0.502842 -0.707421 -0.308627 -0.761958 0.569359 -0.368251 0.108776 0.923341 -0.381076 0.356034 0.853241 -0.842785 -0.303204 -0.444726 -0.755593 -0.641590 -0.132065 0.888301 0.327507 0.321963 0.475622 -0.453348 -0.753830 -0.346963 0.211291 0.913769 -0.783852 -0.598355 -0.165974 -0.382687 0.923878 -0.000000 -0.489058 0.708864 0.508265 -0.122876 0.848619 0.514537 -0.141620 0.873480 0.465808 0.006354 0.958624 0.284605 0.449504 0.891925 0.049148 0.383294 0.900830 -0.203938 0.523115 0.839748 -0.145515 0.259872 0.718185 -0.645506 -0.720080 0.582393 0.377231 -0.813726 0.523881 -0.251792 -0.715851 0.641356 0.276081 -0.393723 0.756108 -0.522764 "
							        />
							<TextureCoordinate point="0.0000 0.0000 0.0000 0.0000 0.0000 0.0000 0.0000 0.0000 0.0000 0.0000 0.0000 0.0000 0.0000 0.0000 0.0000 0.0000 0.0000 0.0000 0.0000 0.0000 0.0000 0.0000 0.0000 0.0000 0.0000 0.0000 0.0000 0.0000 0.0000 0.0000 0.0000 0.0000 0.0000 0.0000 0.0000 0.0000 0.0000 0.0000 0.0000 0.0000 0.0000 0.0000 0.0000 0.0000 0.0000 0.0000 0.0000 0.0000 0.0000 0.0000 0.0000 0.0000 0.0000 0.0000 0.0000 0.0000 0.0000 0.0000 0.0000 0.0000 0.0000 0.0000 0.0000 0.0000 0.0000 0.0000 0.0000 0.0000 0.0000 0.0000 0.0000 0.0000 0.0000 0.0000 0.0000 0.0000 0.0000 0.0000 0.0000 0.0000 0.0000 0.0000 0.0000 0.0000 0.0000 0.0000 0.0000 0.0000 0.0000 0.0000 0.0000 0.0000 0.0000 0.0000 0.0000 0.0000 0.0000 0.0000 0.0000 0.0000 0.0000 0.0000 0.0000 0.0000 0.0000 0.0000 0.0000 0.0000 0.0000 0.0000 0.0000 0.0000 0.0000 0.0000 0.0000 0.0000 0.0000 0.0000 0.0000 0.0000 0.0000 0.0000 0.0000 0.0000 0.0000 0.0000 0.0000 0.0000 0.0000 0.0000 0.0000 0.0000 0.0000 0.0000 0.0000 0.0000 0.0000 0.0000 0.0000 0.0000 0.2770 0.4649 0.2749 0.4663 0.2811 0.4969 0.2816 0.5000 0.3125 0.5000 0.3125 0.4439 0.3116 0.4390 0.3125 0.5000 0.2816 0.5000 0.2879 0.5337 0.3125 0.5070 0.3125 0.4439 0.3125 0.5000 0.3169 0.5000 0.3200 0.4937 0.3208 0.4919 0.3128 0.4451 0.3125 0.5000 0.3125 0.5070 0.3169 0.5000 " />
						</IndexedFaceSet>
					</Shape>
				</Group>
			</Transform>
		</Transform>
		<Transform DEF="水色(サファイヤ)_TRANSFORM"
		           translation="0.000000 0.000000 0.000000"
		           scale="1.000000 1.000000 1.000000"
		           rotation="-1.000000 0.000000 0.000000 1.570796"
		           >
			<Transform DEF="水色(サファイヤ)_ifs_TRANSFORM"
			           translation="0.000000 0.000000 0.000000"
			           scale="1.000000 1.000000 1.000000"
			           rotation="0.000000 1.000000 0.000000 0.000000"
			           >
				<Group DEF="group_ME_円柱_006">
					<Shape>
						<Appearance>
						</Appearance>
						<IndexedFaceSet solid="false"
						                normalPerVertex="true"
						                texCoordIndex="0 1 2 -1 3 4 5 -1 6 7 8 -1 9 10 11 -1 12 13 14 15 -1 16 17 18 19 20 -1 21 22 23 24 -1 25 26 27 28 -1 29 30 31 32 33 -1 34 35 36 37 -1 38 39 40 41 -1 42 43 44 45 -1 46 47 48 49 50 51 52 -1 53 54 55 56 57 -1 58 59 60 61 62 -1 63 64 65 66 -1 67 68 69 70 71 72 73 -1 74 75 76 77 78 79 80 81 82 -1 83 84 85 86 87 88 -1 89 90 91 -1 92 93 94 95 96 97 -1 98 99 100 101 -1 "
						                coordIndex="0 1 2 -1 3 4 5 -1 6 7 8 -1 9 10 11 -1 2 4 3 0 -1 5 4 15 14 13 -1 1 16 17 2 -1 6 9 11 7 -1 18 11 10 20 19 -1 22 8 7 21 -1 0 6 8 1 -1 5 10 9 3 -1 4 2 17 25 23 24 15 -1 16 1 8 22 26 -1 20 10 5 13 27 -1 0 3 9 6 -1 21 7 11 18 30 28 29 -1 17 16 26 29 28 30 12 23 25 -1 19 20 27 12 30 18 -1 23 12 24 -1 14 15 24 12 27 13 -1 21 29 26 22 -1 "
						                >
							<Coordinate DEF="coords_ME_円柱_006"
							            point="0.005886 -0.104952 0.424850 0.004441 -0.101660 0.422230 0.007864 -0.101904 0.423873 0.017509 -0.106562 0.444022 0.019328 -0.103490 0.443142 0.019189 -0.103692 0.447048 0.002629 -0.104903 0.426896 0.000893 -0.101799 0.428250 0.001180 -0.101611 0.424278 0.014272 -0.106516 0.446056 0.015953 -0.103644 0.449086 0.012411 -0.103393 0.447487 0.017089 -0.041256 0.438713 0.021433 -0.041234 0.450989 0.021445 -0.041160 0.450710 0.021754 -0.040101 0.447075 0.007579 -0.034681 0.426042 0.010989 -0.035095 0.427678 0.014623 -0.044228 0.451189 0.015054 -0.044182 0.451387 0.018078 -0.043875 0.452866 0.003812 -0.039287 0.431814 0.004223 -0.036641 0.427976 0.017077 -0.041226 0.438665 0.017103 -0.041246 0.438713 0.011081 -0.035181 0.427833 0.005911 -0.035655 0.427003 0.018162 -0.043848 0.452815 0.004720 -0.040129 0.433344 0.004679 -0.040091 0.433275 0.007695 -0.043125 0.438713 "
							            />
							<Normal DEF="normals_ME_円柱_006"
							        vector="0.145849 -0.831307 -0.536337 -0.094316 -0.284541 -0.954013 0.647313 -0.264651 -0.714805 0.493185 -0.869899 0.006588 0.921232 -0.291457 -0.257653 0.782034 -0.395928 0.481315 -0.556890 -0.823222 -0.110359 -0.942420 -0.255116 0.216242 -0.805855 -0.272701 -0.525578 -0.210629 -0.876027 0.433833 0.069433 -0.401333 0.913297 -0.662472 -0.304419 0.684442 -0.354767 0.856703 0.374435 0.461781 0.689076 0.558509 0.486294 0.833746 0.261506 0.532938 0.843457 -0.067515 -0.113758 0.830970 -0.544562 0.520491 0.810486 -0.268703 -0.573851 0.520789 0.632039 -0.394401 0.591085 0.703609 -0.010569 0.500404 0.865727 -0.776436 0.483134 0.404633 -0.752021 0.639518 -0.159625 0.617044 0.783624 0.072041 0.205321 0.976307 -0.068323 0.653453 0.755626 0.045031 -0.592737 0.764297 -0.253993 0.119183 0.666718 0.735719 -0.609686 0.490599 0.622571 -0.609683 0.490603 0.622572 -0.614194 0.557760 0.558273 "
							        />
							<TextureCoordinate point="0.0000 0.0000 0.0000 0.0000 0.0000 0.0000 0.0000 0.0000 0.0000 0.0000 0.0000 0.0000 0.0000 0.0000 0.0000 0.0000 0.0000 0.0000 0.0000 0.0000 0.0000 0.0000 0.0000 0.0000 0.0000 0.0000 0.0000 0.0000 0.0000 0.0000 0.0000 0.0000 0.0000 0.0000 0.0000 0.0000 0.0000 0.0000 0.0000 0.0000 0.0000 0.0000 0.0000 0.0000 0.0000 0.0000 0.0000 0.0000 0.0000 0.0000 0.0000 0.0000 0.0000 0.0000 0.0000 0.0000 0.0000 0.0000 0.0000 0.0000 0.0000 0.0000 0.0000 0.0000 0.0000 0.0000 0.0000 0.0000 0.0000 0.0000 0.0000 0.0000 0.0000 0.0000 0.0000 0.0000 0.0000 0.0000 0.0000 0.0000 0.0000 0.0000 0.0000 0.0000 0.0000 0.0000 0.0000 0.0000 0.0000 0.0000 0.0000 0.0000 0.0000 0.0000 0.0000 0.0000 0.0000 0.0000 0.0000 0.0000 0.0000 0.0000 0.0000 0.0000 0.0000 0.0000 0.0000 0.0000 0.0000 0.0000 0.0000 0.0000 0.0000 0.0000 0.0000 0.0000 0.0000 0.0000 0.0000 0.0000 0.0000 0.0000 0.0000 0.0000 0.0000 0.0000 0.0000 0.0000 0.0000 0.0000 0.0000 0.0000 0.0000 0.0000 0.0000 0.0000 0.0000 0.0000 0.0000 0.0000 0.0000 0.0000 0.0000 0.0000 0.0000 0.0000 0.0000 0.0000 0.2985 0.2870 0.2847 0.2740 0.2772 0.2817 0.2697 0.3317 0.2698 0.3322 0.2781 0.3750 0.3125 0.3750 0.3125 0.3746 0.2988 0.2883 0.3021 0.4606 0.3122 0.4706 0.3125 0.4703 0.3125 0.3750 0.2781 0.3750 0.3007 0.4593 0.3125 0.3746 0.3125 0.3750 0.3126 0.3750 0.3266 0.4561 0.3292 0.4315 0.3126 0.3750 0.3125 0.3750 0.3125 0.4703 0.3265 0.4580 0.2664 0.3200 0.2697 0.3317 0.2772 0.2817 0.2692 0.2894 " />
						</IndexedFaceSet>
					</Shape>
				</Group>
			</Transform>
		</Transform>
		<Transform DEF="黒(サファイヤ)_TRANSFORM"
		           translation="0.000000 0.000000 0.000000"
		           scale="1.000000 1.000000 1.000000"
		           rotation="-1.000000 0.000000 0.000000 1.570796"
		           >
			<Transform DEF="黒(サファイヤ)_ifs_TRANSFORM"
			           translation="0.000000 0.000000 0.000000"
			           scale="1.000000 1.000000 1.000000"
			           rotation="0.000000 1.000000 0.000000 0.000000"
			           >
				<Group DEF="group_ME_円柱_007">
					<Shape>
						<Appearance>
						</Appearance>
						<IndexedFaceSet solid="false"
						                normalPerVertex="true"
						                texCoordIndex="0 1 2 -1 3 4 5 -1 6 7 8 -1 9 10 11 -1 12 13 14 15 -1 16 17 18 19 20 -1 21 22 23 24 25 -1 26 27 28 -1 29 30 31 32 -1 33 34 35 36 -1 37 38 39 40 -1 41 42 43 44 -1 45 46 47 48 -1 49 50 51 52 53 -1 54 55 56 57 58 -1 59 60 61 -1 62 63 64 65 -1 66 67 68 69 -1 70 71 72 73 -1 74 75 76 77 -1 78 79 80 81 -1 82 83 84 85 -1 86 87 88 89 -1 90 91 92 -1 93 94 95 96 -1 97 98 99 100 -1 101 102 103 104 -1 105 106 107 108 109 110 111 112 113 114 115 116 -1 117 118 119 120 -1 121 122 123 124 -1 125 126 127 -1 128 129 130 131 -1 132 133 134 135 -1 136 137 138 -1 139 140 141 142 143 144 145 146 147 148 -1 149 150 151 -1 152 153 154 155 -1 156 157 158 159 160 161 162 163 164 165 -1 166 167 168 169 170 171 172 173 -1 174 175 176 177 178 179 180 -1 181 182 183 184 -1 185 186 187 -1 "
						                coordIndex="0 1 2 -1 3 4 5 -1 15 16 17 -1 18 19 20 -1 7 0 2 6 -1 4 8 33 32 34 -1 36 7 6 37 35 -1 4 3 8 -1 4 12 11 5 -1 13 11 12 14 -1 14 10 9 13 -1 1 9 10 2 -1 23 16 15 22 -1 39 40 24 20 38 -1 22 42 43 41 23 -1 24 18 20 -1 19 27 28 20 -1 30 28 27 29 -1 29 25 26 30 -1 16 26 25 17 -1 0 15 17 1 -1 5 19 18 3 -1 0 7 22 15 -1 6 2 10 -1 9 1 17 25 -1 8 3 18 24 -1 5 11 27 19 -1 10 12 4 34 45 48 49 46 47 44 37 6 -1 42 22 7 36 -1 8 24 40 33 -1 10 14 12 -1 13 9 25 29 -1 11 13 29 27 -1 23 26 16 -1 38 20 28 26 23 41 53 51 52 50 -1 26 28 30 -1 21 47 46 49 -1 32 33 40 39 38 50 31 48 45 34 -1 36 35 37 44 47 21 43 42 -1 41 43 21 31 52 51 53 -1 31 21 49 48 -1 52 31 50 -1 "
						                >
							<Coordinate DEF="coords_ME_円柱_007"
							            point="-0.011876 -0.057038 0.399924 -0.011052 -0.058785 0.400768 -0.010667 -0.054900 0.405375 0.002567 -0.079301 0.420753 0.000558 -0.073231 0.421894 0.001476 -0.079046 0.419112 -0.010667 -0.054900 0.405375 -0.010495 -0.052098 0.402525 0.003948 -0.073860 0.423243 -0.006825 -0.058124 0.406501 -0.007522 -0.053188 0.410703 0.000396 -0.071354 0.417468 -0.000301 -0.065155 0.421141 -0.004788 -0.071520 0.408109 -0.005973 -0.069663 0.410658 -0.008749 -0.056639 0.397822 -0.003979 -0.054048 0.400971 -0.007925 -0.058405 0.398712 0.005694 -0.078934 0.418555 0.004603 -0.078754 0.416936 0.007247 -0.072432 0.417199 0.000000 -0.034178 0.423032 -0.007368 -0.051674 0.400452 -0.003979 -0.054048 0.400971 0.007075 -0.073502 0.421040 -0.003698 -0.057874 0.404619 -0.000834 -0.052399 0.406424 0.003523 -0.071226 0.415369 0.006388 -0.064506 0.416629 -0.001661 -0.071275 0.405996 0.000716 -0.069167 0.406175 0.006690 -0.032847 0.423032 0.008410 -0.041805 0.436951 0.010864 -0.041957 0.437909 0.007285 -0.041703 0.436464 -0.003752 -0.026514 0.418411 -0.003635 -0.025375 0.417634 -0.004151 -0.028879 0.420044 0.014577 -0.038041 0.433154 0.014399 -0.039611 0.435451 0.014281 -0.040233 0.436346 0.003308 -0.024981 0.417327 -0.000222 -0.023869 0.416174 0.000000 -0.023989 0.416225 -0.003432 -0.030386 0.420955 0.006470 -0.040964 0.435116 -0.000515 -0.035479 0.425133 -0.001905 -0.033799 0.423032 0.004790 -0.039690 0.432709 0.000000 -0.036056 0.425844 0.007455 -0.032695 0.423032 0.006375 -0.030831 0.421644 0.006845 -0.031641 0.422247 0.006141 -0.030285 0.421248 "
							            />
							<Normal DEF="normals_ME_円柱_007"
							        vector="-0.897741 -0.089183 -0.431402 -0.569366 -0.819010 -0.071020 -0.875142 -0.222167 0.429846 -0.147392 -0.806762 0.572199 -0.829003 -0.241292 0.504512 -0.695418 -0.688319 -0.206425 -0.725012 -0.151403 0.671889 -0.852838 0.406155 -0.328185 0.093129 -0.434146 0.896016 -0.776366 -0.624176 -0.087519 -0.880396 -0.183370 0.437354 -0.809152 -0.583911 -0.065732 -0.872273 -0.163938 0.460722 -0.661083 -0.704113 -0.259218 -0.910375 -0.308813 0.275413 -0.098051 0.004693 -0.995170 0.683925 0.024919 -0.729126 0.248327 -0.729702 -0.637078 0.668535 -0.743334 0.022724 0.124849 -0.639205 -0.758834 0.818532 -0.147879 -0.555101 0.000003 0.718855 0.695160 -0.073886 0.495283 -0.865584 0.584723 0.523833 -0.619433 0.849200 -0.370860 0.375928 0.346997 -0.458776 -0.817996 0.805509 -0.020531 -0.592228 0.342995 -0.552732 -0.759501 0.832413 -0.028147 -0.553440 0.156628 -0.633719 -0.757540 0.716700 -0.166500 -0.677214 -0.139173 0.699709 0.700741 -0.344290 0.315166 0.884384 0.056256 0.144855 0.987852 -0.522265 0.283590 0.804249 -0.588906 0.505247 0.630805 -0.591635 0.779872 0.204374 -0.618803 0.396276 0.678268 0.750634 0.634871 0.182998 0.709366 0.540185 0.452770 0.665910 0.323298 0.672341 0.580558 0.813688 0.029398 0.066870 0.987136 -0.145229 0.394335 0.915863 0.075472 -0.461106 0.298004 0.835808 -0.614644 0.452744 0.645938 -0.467387 0.507412 0.723936 -0.436333 0.384046 0.813709 -0.614644 0.452744 0.645938 -0.583409 0.473976 0.659530 0.565803 0.791764 0.230167 0.727532 0.617824 0.298312 0.727535 0.617822 0.298309 0.727532 0.617824 0.298312 "
							        />
							<TextureCoordinate point="0.0000 0.0879 0.0663 0.0707 0.1114 0.2665 1.0000 0.0879 0.8886 0.2665 0.9337 0.0707 0.0000 0.0879 0.1114 0.2665 0.0663 0.0707 1.0000 0.0879 0.9337 0.0707 0.8886 0.2665 0.0000 0.2665 0.0000 0.0879 0.1114 0.2665 0.1114 0.2665 0.8886 0.2665 1.0000 0.2665 1.0000 0.7413 0.9241 0.7323 0.8886 0.7283 0.0000 0.7375 0.0000 0.2665 0.1114 0.2665 0.1114 0.7139 0.0360 0.7298 0.8886 0.2665 1.0000 0.0879 1.0000 0.2665 0.8886 0.2665 0.7500 0.4028 0.8163 0.1959 0.9337 0.0707 0.5663 0.0707 0.6837 0.1959 0.7500 0.4028 0.5000 0.1478 0.5000 0.1478 0.2500 0.4028 0.3163 0.1959 0.4337 0.0707 0.0663 0.0707 0.1837 0.1959 0.2500 0.4028 0.1114 0.2665 0.1114 0.2665 0.1114 0.2665 0.0000 0.0879 0.0000 0.2665 0.9686 0.7638 1.0000 0.7612 1.0000 0.2665 0.8886 0.2665 0.8886 0.7698 0.0000 0.2665 0.0000 0.7571 0.0074 0.7569 0.1114 0.7668 0.1114 0.2665 1.0000 0.2665 1.0000 0.0879 0.8886 0.2665 0.9337 0.0707 0.8163 0.1959 0.7500 0.4028 0.8886 0.2665 0.5000 0.1478 0.7500 0.4028 0.6837 0.1959 0.5663 0.0707 0.4337 0.0707 0.3163 0.1959 0.2500 0.4028 0.5000 0.1478 0.1114 0.2665 0.2500 0.4028 0.1837 0.1959 0.0663 0.0707 0.0000 0.0879 0.0000 0.0879 0.0663 0.0707 0.0663 0.0707 0.9337 0.0707 0.9337 0.0707 1.0000 0.0879 1.0000 0.0879 0.0000 0.0879 0.0000 0.2665 0.0000 0.2665 0.0000 0.0879 0.1114 0.2665 0.1114 0.2665 0.2500 0.4028 0.1837 0.1959 0.0663 0.0707 0.0663 0.0707 0.1837 0.1959 1.0000 0.2665 1.0000 0.0879 1.0000 0.0879 1.0000 0.2665 0.9337 0.0707 0.8163 0.1959 0.8163 0.1959 0.9337 0.0707 0.2500 0.4028 0.7500 0.4028 0.8886 0.2665 0.8886 0.7283 0.8320 0.7250 0.7279 0.7176 0.4311 0.6931 0.3969 0.6923 0.2984 0.6899 0.1692 0.7066 0.1114 0.7139 0.1114 0.2665 0.0000 0.7571 0.0000 0.2665 0.0000 0.2665 0.0000 0.7375 1.0000 0.2665 1.0000 0.2665 1.0000 0.7612 1.0000 0.7413 0.2500 0.4028 0.5000 0.1478 0.7500 0.4028 0.4337 0.0707 0.3163 0.1959 0.3163 0.1959 0.4337 0.0707 0.6837 0.1959 0.5663 0.0707 0.5663 0.0707 0.6837 0.1959 0.1114 0.2665 0.2500 0.4028 0.1114 0.2665 0.8886 0.7698 0.8886 0.2665 0.7500 0.4028 0.2500 0.4028 0.1114 0.2665 0.1114 0.7668 0.3392 0.7459 0.3614 0.7435 0.3968 0.7404 0.4427 0.7364 0.2500 0.4028 0.7500 0.4028 0.5000 0.1478 0.2500 0.2500 0.2409 0.2500 0.2477 0.2667 0.2500 0.2724 0.2819 0.3609 0.2903 0.3686 0.3041 0.3561 0.3054 0.3490 0.3082 0.3307 0.2856 0.2500 0.2820 0.2500 0.2704 0.3271 0.2757 0.3463 0.2780 0.3571 0.2273 0.1856 0.2275 0.1949 0.2270 0.2143 0.2317 0.2252 0.2409 0.2500 0.2500 0.2500 0.2500 0.1688 0.2485 0.1682 0.2722 0.1819 0.2500 0.1688 0.2500 0.2500 0.2820 0.2500 0.2849 0.2406 0.2837 0.2334 0.2833 0.2287 0.2820 0.2500 0.2500 0.2500 0.2500 0.2724 0.2704 0.3271 0.2849 0.2406 0.2820 0.2500 0.2856 0.2500 " />
						</IndexedFaceSet>
					</Shape>
				</Group>
			</Transform>
		</Transform>
	</Scene>
</X3D>